<svg xmlns="http://www.w3.org/2000/svg" opacity=".4" fill="#d9856c" xmlns:xlink="http://www.w3.org/1999/xlink" version="1.1" x="0px" y="0px" viewBox="0 0 490 490" enable-background="new 0 0 512 512" xml:space="preserve"><g><g><g><path d="M256.48,356.5c-7.46,0-14.9-0.82-22.12-2.45c-7.02-1.579-13.88-3.94-20.4-7c-0.96-0.46-1.69-1.26-2.06-2.271     c-0.36-1-0.31-2.09,0.15-3.061c0.65-1.39,2.07-2.289,3.62-2.289c0.59,0,1.16,0.129,1.7,0.379c12.28,5.771,25.44,8.69,39.11,8.69     c24.57,0,47.69-9.569,65.08-26.95c17.381-17.4,26.96-40.52,26.96-65.12c0-24.57-9.579-47.67-26.96-65.06     c-17.39-17.38-40.499-26.95-65.08-26.95c-24.58,0-47.7,9.57-65.09,26.95c-17.37,17.38-26.95,40.489-26.95,65.06     c0,8.299,1.1,16.51,3.27,24.42c1.09,3.989,2.47,7.949,4.1,11.76c0.21,0.49,0.32,1.011,0.32,1.551     c0.01,1.609-0.95,3.061-2.43,3.689c-0.5,0.219-1.03,0.33-1.57,0.33c-1.6,0-3.05-0.961-3.68-2.431     c-1.77-4.142-3.27-8.44-4.45-12.78l-0.02-0.07c-2.35-8.58-3.54-17.488-3.54-26.469c0-13.5,2.65-26.6,7.86-38.93     c5.04-11.91,12.25-22.601,21.44-31.79c9.19-9.18,19.88-16.391,31.8-21.43c12.33-5.211,25.43-7.86,38.94-7.86     c13.5,0,26.6,2.649,38.93,7.86c11.909,5.039,22.608,12.25,31.8,21.43c9.189,9.189,16.41,19.88,21.45,31.79     c5.21,12.33,7.858,25.43,7.858,38.93c0,13.521-2.64,26.629-7.858,38.969c-5.04,11.91-12.261,22.61-21.45,31.802     c-9.19,9.188-19.88,16.399-31.8,21.438C283.08,353.859,269.98,356.5,256.48,356.5z"/></g><g><path d="M239.16,469.96c-0.7,0-1.39-0.18-2-0.53l-92.54-53.39c-1.91-1.101-2.57-3.55-1.46-5.46c0.71-1.24,2.04-2,3.46-2     c0.7,0,1.39,0.18,2,0.529l89.37,51.561c4.57-5.51,11.3-8.67,18.49-8.67c7.18,0,13.911,3.16,18.49,8.67l74.59-43.021l74.53-43.039     c-1-2.699-1.5-5.529-1.5-8.42c0-2.121,0.28-4.239,0.83-6.279c0.53-2,1.33-3.932,2.37-5.73c1.58-2.74,3.648-5.1,6.148-7.02     c0.71-0.54,1.54-0.82,2.432-0.82c1.26,0,2.42,0.57,3.18,1.57c0.54,0.699,0.82,1.54,0.82,2.43c0,1.25-0.57,2.41-1.562,3.17     c-1.66,1.28-3.04,2.84-4.09,4.66c-0.68,1.189-1.21,2.46-1.57,3.77c0,0.021,0,0.041-0.01,0.052c-0.37,1.368-0.55,2.778-0.55,4.198     c-0.01,2.842,0.729,5.631,2.13,8.07c1.101,1.9,0.44,4.35-1.47,5.45l-77.69,44.859l-77.76,44.859     c-0.609,0.352-1.29,0.53-1.988,0.53c-1.422,0-2.75-0.76-3.461-1.979c-2.931-5-8.109-7.979-13.871-7.989     c-5.78,0.01-10.96,2.989-13.85,7.979C241.91,469.2,240.58,469.96,239.16,469.96z M85.99,381.58L85.99,381.58     c-0.7,0-1.39-0.182-1.99-0.53l-2.32-1.34c-0.93-0.53-1.59-1.399-1.87-2.431c-0.27-1.029-0.13-2.109,0.41-3.039     c1.38-2.381,2.12-5.11,2.15-7.881v-0.149c0-2.8-0.74-5.54-2.15-7.94l-0.01-0.039c-2.87-5.011-8.05-8.011-13.85-8.021     c-1.05,0-2.08-0.431-2.83-1.17c-0.74-0.75-1.17-1.78-1.17-2.83V166.72c0-1.06,0.43-2.09,1.17-2.83c0.75-0.75,1.78-1.18,2.83-1.18     c5.69,0,11-3.07,13.86-8.021c1.42-2.479,2.15-5.17,2.15-7.989c0-2.811-0.75-5.591-2.15-8.021c-0.53-0.91-0.68-2.02-0.41-3.04     c0.28-1.01,0.96-1.899,1.87-2.43l78.81-45.47c0.61-0.351,1.3-0.54,1.99-0.54c1.43,0,2.76,0.77,3.47,2     c1.1,1.909,0.45,4.359-1.47,5.47l-75.63,43.64c1.01,2.7,1.52,5.521,1.52,8.391c0,4.189-1.12,8.33-3.23,11.989     c-3.6,6.221-9.71,10.48-16.78,11.681v172.17c7.09,1.2,13.19,5.46,16.77,11.688l0,0c2.12,3.621,3.24,7.762,3.24,11.98     c0,0.04,0,0.07,0,0.109s-0.01,0.08-0.01,0.109c-0.02,2.852-0.55,5.641-1.55,8.312c0.76,0.739,1.19,1.778,1.19,2.85     c0,0.7-0.19,1.39-0.54,1.99c-0.01,0.021-0.02,0.04-0.03,0.06C88.71,380.84,87.39,381.58,85.99,381.58z M446.569,293.318     c-2.199,0-4-1.789-4-4V170.37c-7.091-1.2-13.21-5.46-16.789-11.7c-2.091-3.64-3.2-7.78-3.19-11.97c0-2.87,0.5-5.69,1.5-8.381     L349.56,95.29l-74.6-43.04c-4.61,5.52-11.341,8.68-18.48,8.68c-7.18-0.01-13.91-3.17-18.49-8.68l-1.6,0.93l-0.01,0.01l-0.08,0.04     l-11.18,6.45c-0.61,0.351-1.3,0.54-2,0.54c-1.42,0-2.75-0.77-3.47-2c-0.35-0.61-0.53-1.3-0.53-1.99c0-1.43,0.76-2.76,2-3.479     l16.04-9.25c0.61-0.351,1.3-0.54,2-0.54c1.43,0,2.75,0.77,3.47,2c2.84,4.92,8.14,7.97,13.84,7.97h0.01c5.73,0,10.92-2.99,13.87-8     c0.721-1.21,2.041-1.97,3.45-1.97c0.7,0,1.39,0.189,2,0.54l77.76,44.859l77.69,44.86c1.899,1.09,2.569,3.54,1.479,5.45     c-1.398,2.439-2.14,5.22-2.14,8.03c0,2.84,0.72,5.529,2.13,8c2.83,4.939,8.141,8.01,13.851,8.01c1.061,0,2.091,0.43,2.83,1.18     c0.75,0.74,1.17,1.771,1.17,2.83l0.011,122.601C450.58,291.529,448.78,293.318,446.569,293.318z"/></g><g><path d="M256.48,164.42c-2.2,0-4-1.79-4-4V56.93c0-2.21,1.8-4,4-4c2.209,0,4,1.79,4,4v103.49     C260.48,162.63,258.689,164.42,256.48,164.42z"/></g><g><path d="M339.66,212.46c-1.42,0-2.75-0.771-3.471-2c-1.101-1.91-0.439-4.36,1.471-5.47l89.59-51.771c0.609-0.35,1.3-0.53,2-0.53     c1.42,0,2.75,0.761,3.47,2c1.101,1.9,0.44,4.36-1.47,5.46l-89.59,51.771C341.05,212.27,340.359,212.46,339.66,212.46z"/></g><g><path d="M429.25,360.25c-0.7,0-1.391-0.189-2-0.54l-89.59-51.78c-0.932-0.529-1.591-1.398-1.87-2.43     c-0.271-1.029-0.13-2.109,0.399-3.029c0.721-1.24,2.039-2,3.471-2c0.699,0,1.39,0.18,2,0.539l89.59,51.78     c1.91,1.101,2.569,3.55,1.47,5.46C432,359.479,430.68,360.25,429.25,360.25z"/></g><g><path d="M256.48,459.99c-2.2,0-4-1.79-4-3.99V352.51c0-2.21,1.8-4.01,4-4.01c2.209,0,4,1.8,4,4.01V456     C260.48,458.2,258.689,459.99,256.48,459.99z"/></g><g><path d="M83.68,360.18c-1.42,0-2.75-0.77-3.47-2c-0.53-0.93-0.67-2.01-0.39-3.039c0.27-1.031,0.93-1.891,1.86-2.421L171.3,301     c0.61-0.352,1.3-0.529,2-0.529c1.43,0,2.76,0.76,3.47,2c0.53,0.92,0.67,2,0.4,3.039c-0.28,1.03-0.94,1.891-1.87,2.42     l-89.62,51.711C85.07,359.99,84.38,360.18,83.68,360.18z"/></g><g><path d="M173.3,212.46c-0.7,0-1.39-0.19-2-0.54l-89.62-51.771c-1.91-1.1-2.57-3.55-1.46-5.46c0.71-1.239,2.04-2,3.46-2     c0.7,0,1.39,0.181,2,0.53l89.62,51.771c1.91,1.109,2.57,3.56,1.47,5.47C176.05,211.689,174.73,212.46,173.3,212.46z"/></g><g><path d="M256.48,60.93L256.48,60.93c-13.24-0.01-24.02-10.77-24.03-23.99c0.01-13.229,10.79-24,24.03-24l0,0l0,0l0,0     c13.23,0.011,23.991,10.771,24,24C280.471,50.16,269.71,60.92,256.48,60.93z M256.48,20.939c-8.82,0.011-16.01,7.19-16.03,16     c0.02,8.801,7.21,15.971,16.03,15.99c8.81-0.02,15.991-7.189,16-15.99C272.471,28.13,265.29,20.95,256.48,20.939L256.48,20.939z"/></g><g><path d="M446.63,170.7h-0.04c-4.14,0-8.229-1.08-11.84-3.12c-3.71-2.101-6.811-5.17-8.96-8.891     c-2.11-3.64-3.221-7.779-3.221-11.97c0-8.57,4.601-16.54,12.021-20.79c0,0,0,0,0-0.01c3.65-2.11,7.79-3.22,11.97-3.22h0.03     c4.13,0,8.22,1.08,11.82,3.119c3.71,2.091,6.8,5.16,8.938,8.86l0,0c0.011,0,0.011,0,0.011,0c2.119,3.67,3.229,7.83,3.229,12.03     c0.01,4.13-1.07,8.22-3.109,11.83c-2.091,3.71-5.16,6.81-8.87,8.96l-0.021,0.01C454.939,169.6,450.81,170.7,446.63,170.7z      M446.58,130.7c-2.84,0-5.53,0.729-8,2.159l-0.021,0.011c-4.92,2.819-7.979,8.12-7.989,13.85c0,2.83,0.721,5.51,2.149,7.97     c2.891,5,8.09,8,13.891,8.011c2.841,0,5.529-0.721,8.011-2.141c0,0,0,0,0.01,0c4.9-2.859,7.96-8.16,7.96-13.85     c0-2.84-0.729-5.54-2.16-8.03C457.58,133.76,452.28,130.7,446.58,130.7L446.58,130.7z"/></g><g><path d="M446.59,390.229h-0.03c-4.188,0-8.329-1.119-11.979-3.22c-7.41-4.26-12.021-12.229-12.011-20.8     c0-4.189,1.109-8.33,3.221-11.96c2.149-3.72,5.25-6.8,8.96-8.91c3.609-2.05,7.71-3.14,11.84-3.14h0.04     c4.189,0,8.33,1.119,11.979,3.238c3.71,2.15,6.779,5.24,8.87,8.951c2.039,3.609,3.119,7.699,3.109,11.829     c0,4.2-1.109,8.36-3.229,12.03c0,0,0,0-0.011,0c-2.14,3.7-5.229,6.77-8.93,8.859C454.81,389.148,450.72,390.229,446.59,390.229z      M446.609,350.2c-5.699,0.01-11.029,3.09-13.899,8.06c-1.4,2.41-2.141,5.16-2.141,7.95c0.011,5.729,3.069,11.04,8,13.858     c2.479,1.432,5.171,2.16,8.011,2.16c5.688-0.01,11-3.06,13.84-7.979c0.01,0,0.01,0,0.01,0c1.431-2.49,2.16-5.189,2.16-8.029     c0-5.701-3.07-11.011-7.99-13.861C452.13,350.93,449.439,350.2,446.609,350.2L446.609,350.2z"/></g><g><path d="M256.48,500L256.48,500c-13.24-0.01-24.02-10.771-24.03-24.01c0.01-6.421,2.52-12.45,7.06-16.972     c4.53-4.52,10.55-7.01,16.97-7.02c6.411,0.01,12.43,2.5,16.959,7.02c4.541,4.521,7.041,10.551,7.041,16.972     C280.48,489.22,269.71,499.99,256.48,500z M256.48,460c-8.84,0-16.03,7.18-16.03,15.99c0.02,8.81,7.21,15.989,16.03,16.01     c8.81-0.021,15.98-7.2,16-16.01C272.46,467.17,265.29,460,256.48,460L256.48,460z"/></g><g><path d="M66.37,390.229h-0.02c-4.14,0-8.23-1.08-11.84-3.119c-3.71-2.09-6.8-5.149-8.96-8.851l-0.01-0.03     c-2.09-3.66-3.2-7.799-3.2-11.979c0-4.141,1.07-8.23,3.11-11.84c2.09-3.721,5.16-6.82,8.88-8.971     c3.65-2.121,7.79-3.239,11.98-3.239h0.03c8.56,0,16.53,4.618,20.8,12.05c2.11,3.63,3.22,7.77,3.22,11.96     c0,8.569-4.6,16.54-12,20.79C74.71,389.109,70.56,390.229,66.37,390.229z M52.49,374.27c2.86,4.9,8.18,7.951,13.87,7.961     c2.83,0,5.53-0.729,8.01-2.16c4.92-2.819,7.98-8.131,7.99-13.859c0-2.82-0.73-5.51-2.15-7.97c-2.84-4.95-8.16-8.03-13.89-8.04     c-2.82,0-5.51,0.729-7.99,2.158c-4.99,2.892-7.98,8.092-7.99,13.892c0.01,2.84,0.73,5.53,2.14,8.01L52.49,374.27z"/></g><g><path d="M66.31,170.7c-4.18,0-8.31-1.101-11.96-3.19l-0.02-0.01c-3.72-2.15-6.79-5.26-8.88-8.98c-2.04-3.6-3.11-7.7-3.11-11.84     c0-4.189,1.11-8.33,3.2-11.99l0.01-0.02c2.16-3.7,5.25-6.76,8.96-8.851c3.61-2.039,7.7-3.119,11.83-3.119h0.03     c4.18,0,8.33,1.119,11.98,3.229l0,0c7.41,4.25,12.01,12.22,12.01,20.79c0,4.19-1.11,8.33-3.21,11.96     c-2.14,3.72-5.24,6.8-8.96,8.9c-3.61,2.04-7.7,3.12-11.84,3.12L66.31,170.7L66.31,170.7z M58.3,160.56c0.01,0,0.01,0,0.01,0     c2.45,1.4,5.22,2.141,8.01,2.141c5.82-0.011,11.02-3.011,13.9-8.011c1.42-2.46,2.13-5.14,2.14-7.97     c-0.01-5.72-3.07-11.03-7.99-13.85l-0.02-0.011c-2.47-1.43-5.16-2.159-8-2.159c-5.68,0-10.99,3.05-13.86,7.96h-0.01     c-1.42,2.489-2.14,5.189-2.14,8.02C50.35,152.47,53.33,157.66,58.3,160.56z"/></g><g><path d="M231.22,285.479c-1.07,0-2.07-0.42-2.83-1.17l-22.21-22.18c-0.76-0.76-1.18-1.76-1.18-2.83s0.42-2.08,1.18-2.83     l22.21-22.18c0.76-0.76,1.76-1.17,2.83-1.17c1.07,0,2.07,0.42,2.83,1.17c0.75,0.76,1.17,1.76,1.17,2.83     c0,1.069-0.42,2.069-1.18,2.83l-19.37,19.35l19.37,19.35c0.76,0.75,1.18,1.762,1.18,2.83c0,1.07-0.42,2.07-1.17,2.83     C233.29,285.061,232.29,285.479,231.22,285.479z"/></g><g><path d="M281.75,285.479c-1.07,0-2.08-0.42-2.83-1.18c-0.76-0.75-1.17-1.76-1.17-2.83c0-1.06,0.42-2.07,1.17-2.82l19.38-19.35     l-19.38-19.35l-0.01-0.011c-0.75-0.75-1.16-1.75-1.16-2.819c0-1.07,0.41-2.07,1.17-2.83c1.51-1.51,4.141-1.51,5.65,0l22.22,22.18     c0.75,0.76,1.17,1.76,1.17,2.83s-0.42,2.07-1.17,2.83l-22.22,22.18C283.82,285.061,282.811,285.479,281.75,285.479z"/></g><g><path d="M242.59,297.939c-0.5,0-1-0.101-1.46-0.279c-1-0.391-1.78-1.15-2.21-2.131c-0.42-0.979-0.44-2.061-0.05-3.061l29.5-75     c0.601-1.55,2.069-2.54,3.721-2.54c0.5,0,0.99,0.09,1.46,0.28c2.061,0.8,3.069,3.13,2.262,5.189l-29.5,75     C245.7,296.939,244.24,297.939,242.59,297.939z"/></g></g></g><text x="0" y="527" fill="#d9856c" font-size="5px" font-weight="bold" font-family="'Helvetica Neue', Helvetica, Arial-Unicode, Arial, Sans-serif"></text><text x="0" y="532" fill="#d9856c" font-size="5px" font-weight="bold" font-family="'Helvetica Neue', Helvetica, Arial-Unicode, Arial, Sans-serif"></text></svg>