<svg xmlns="http://www.w3.org/2000/svg" viewBox="0 0 66 58.75" x="0px" y="0px"><path fill="#3bab87" d="M565.716109,458.088036 C566.102491,458.482659 566.095811,459.115789 565.701188,459.502171 C565.306565,459.888553 564.673435,459.881873 564.287053,459.48725 C560.03305,455.142518 555.613454,453 551,453 C544.372583,453 539,458.372583 539,465 C539,471.627417 544.372583,477 551,477 C557.405075,477 563.461111,472.856397 569.172491,464.438548 C575.221509,455.523063 581.83214,451 589,451 C596.731986,451 603,457.268014 603,465 C603,472.731986 596.731986,479 589,479 C583.806378,479 578.892028,476.617879 574.285215,471.913316 C573.898811,471.518714 573.905458,470.885584 574.30006,470.49918 C574.694662,470.112777 575.327792,470.119423 575.714196,470.514026 C579.967816,474.857901 584.386996,477 589,477 C595.627417,477 601,471.627417 601,465 C601,458.372583 595.627417,453 589,453 C582.594925,453 576.538889,457.143603 570.827509,465.561452 C564.778491,474.476937 558.16786,479 551,479 C543.268014,479 537,472.731986 537,465 C537,457.268014 543.268014,451 551,451 C556.194121,451 561.108911,453.382577 565.716109,458.088036 Z M571,444 C570.447715,444 570,443.552285 570,443 C570,442.447715 570.447715,442 571,442 L577,442 C577.552285,442 578,442.447715 578,443 C578,443.552285 577.552285,444 577,444 L571,444 Z M560.292893,433.707107 C559.902369,433.316582 559.902369,432.683418 560.292893,432.292893 C560.683418,431.902369 561.316582,431.902369 561.707107,432.292893 L566.707107,437.292893 C567.097631,437.683418 567.097631,438.316582 566.707107,438.707107 L561.707107,443.707107 C561.316582,444.097631 560.683418,444.097631 560.292893,443.707107 C559.902369,443.316582 559.902369,442.683418 560.292893,442.292893 L564.585786,438 L560.292893,433.707107 Z" transform="translate(-537 -432)"/><text x="0" y="62" fill="#000000" font-size="5px" font-weight="bold" font-family="'Helvetica Neue', Helvetica, Arial-Unicode, Arial, Sans-serif">Created by Andrejs Kirma</text><text x="0" y="67" fill="#000000" font-size="5px" font-weight="bold" font-family="'Helvetica Neue', Helvetica, Arial-Unicode, Arial, Sans-serif">from the Noun Project</text></svg>