<svg height="512pt" viewBox="-19 0 512 512.00085" fill="#fff" width="512pt" xmlns="http://www.w3.org/2000/svg"><path d="m38.863281 249.121094c-84.898437 97.972656-21.972656 249.453125 104.394531 261.949218.25.027344.5.039063.746094.039063 3.8125 0 7.070313-2.890625 7.453125-6.761719.410157-4.121094-2.601562-7.792968-6.722656-8.199218-73.445313-7.265626-129.167969-68.394532-129.617187-142.195313-.429688-71.3125 52.355468-132.859375 122.792968-143.164063 5.378906-.785156 9.433594-5.460937 9.433594-10.878906v-112.652344c0-6.0625-4.933594-10.996093-10.996094-10.996093h-26.902344v-23.132813h26.902344c6.0625 0 10.996094-4.933594 10.996094-10.996094v-27.136718h23.136719v27.136718c0 6.0625 4.929687 10.996094 10.992187 10.996094h26.902344v23.132813h-26.902344c-6.0625 0-10.992187 4.933593-10.992187 10.996093v112.65625c0 5.414063 4.054687 10.089844 9.433593 10.875 110.875 16.21875 162.371094 150.222657 87.695313 236.398438-6.980469-3.574219-13.511719-7.902344-19.488281-12.875 70.339844-76.945312 15.5-201.910156-89.210938-201.910156-66.53125 0-120.660156 54.128906-120.660156 120.660156 0 85.753906 87.035156 143.773438 165.773438 111.941406 6.113281 6.09375 12.605468 11.628906 19.417968 16.59375-14.246094 7.179688-29.480468 11.878906-45.441406 13.996094-4.101562.546875-6.988281 4.316406-6.445312 8.421875.546874 4.105469 4.328124 6.984375 8.417968 6.445313 20.492188-2.71875 39.902344-9.292969 57.773438-19.542969 100.582031 58.085937 227.5-10.367188 236.183594-125.773438.3125-4.128906-2.785157-7.730469-6.914063-8.042969-4.117187-.300781-7.726563 2.785157-8.039063 6.914063-5.664062 75.242187-69.34375 133.445313-144.496093 132.839844-76.957031-.582031-142.296875-66.097657-142.679688-143.0625-.171875-35.046875 12.25-68.515625 35.09375-94.855469 6.980469 3.574219 13.511719 7.902344 19.492188 12.875-20.34375 22.253906-31.453125 50.804688-31.453125 81.25 0 56.15625 38.855468 97.914062 71.832031 110.328125 79.75 35.433594 169.492187-23.503906 169.492187-110.328125 0-85.429688-86.425781-143.398438-165.03125-112.234375-5.996093-5.992187-13.101562-11.988281-19.523437-16.621094 13.511719-6.726562 27.910156-11.230469 42.953125-13.421875 5.34375-.78125 9.371094-5.453125 9.371094-10.871094v-112.808593c0-6.460938-5.257813-11.71875-11.71875-11.71875l-16.164063-.039063 39.472657-60.339844 39.40625 60.378907h-16.144532c-6.460937 0-11.71875 5.257812-11.71875 11.71875v112.808593c0 5.414063 4.058594 10.089844 9.433594 10.875 61.6875 9.023438 111.46875 58.347657 121.066406 119.953126.636719 4.089843 4.46875 6.898437 8.5625 6.253906 4.09375-.636719 6.894532-4.472656 6.253906-8.5625-10.527343-67.570313-63.371093-120.695313-130.320312-131.949219v-106.101563h12.867188c11.914062 0 19.09375-13.257812 12.574218-23.238281l-39.425781-60.339843c-5.929687-9.070313-19.230469-9.0625-25.152344 0l-39.429687 60.339843c-6.519532 9.976563.65625 23.238281 12.578125 23.238281h12.863281v106.101563c-18.273438 3.074219-35.652344 9.269531-51.777344 18.441406-16.121094-9.171875-33.503906-15.367187-51.777344-18.441406v-105.226563h26.902344c6.0625 0 10.992188-4.929687 10.992188-10.992187v-31.140625c0-6.0625-4.929688-10.996094-10.992188-10.996094h-26.902344v-27.132812c0-6.0625-4.933593-10.996094-10.996093-10.996094h-31.136719c-6.0625 0-10.996094 4.933594-10.996094 10.996094v27.136718h-26.902344c-6.0625 0-10.992187 4.929688-10.992187 10.992188v31.140625c0 6.0625 4.929687 10.992187 10.992187 10.992187h26.902344v105.226563c-36.195312 6.105469-69.28125 24.707031-93.484375 52.636719zm154.28125 203.941406c-67.816406 23.324219-139.898437-27.078125-139.898437-100 0-71.804688 70.703125-123.175781 139.179687-100.214844-46.214843 56.6875-49.058593 139.933594.71875 200.214844zm44.078125-170.867188c36.269532 40.042969 36.710938 101.355469.0625 141.730469-16.988281-18.757812-27.355468-43.621093-27.355468-70.863281.003906-26.53125 9.644531-51.421875 27.292968-70.867188zm184.039063 70.867188c0 71.804688-70.703125 123.175781-139.183594 100.210938 47.351563-58.078126 47.707031-141.925782-.015625-200.445313 67.824219-22.785156 139.199219 27.757813 139.199219 100.234375zm0 0"/></svg>