<?xml version="1.0" standalone="no"?>
<!DOCTYPE svg PUBLIC "-//W3C//DTD SVG 20010904//EN"
 "http://www.w3.org/TR/2001/REC-SVG-20010904/DTD/svg10.dtd">
<svg version="1.0" xmlns="http://www.w3.org/2000/svg"
 width="2048.000000pt" height="2048.000000pt" viewBox="0 0 2048.000000 2048.000000"
 preserveAspectRatio="xMidYMid meet">

<g transform="translate(0.000000,2048.000000) scale(0.100000,-0.100000)"
fill="#000000" stroke="none">
<path d="M8187 17056 c-141 -51 -219 -215 -171 -362 15 -44 64 -96 485 -519
258 -259 469 -473 469 -477 0 -3 -205 -210 -455 -459 -477 -474 -495 -496
-511 -595 -17 -113 51 -240 158 -293 52 -27 72 -31 137 -31 134 1 33 -91 1083
976 187 190 233 241 255 290 36 77 38 168 6 234 -33 66 -1170 1198 -1234 1228
-53 26 -161 29 -222 8z"/>
<path d="M10284 14874 c-103 -37 -174 -140 -174 -254 0 -125 51 -209 158 -262
l67 -33 790 0 c787 0 790 0 836 21 57 26 118 85 144 139 27 55 28 194 1 245
-25 49 -83 108 -131 133 -40 22 -40 22 -845 24 -687 1 -811 -1 -846 -13z"/>
<path d="M5610 13539 c-591 -52 -1118 -215 -1565 -484 -343 -206 -620 -446
-850 -735 -341 -427 -543 -859 -655 -1396 -54 -260 -65 -380 -65 -709 0 -319
7 -391 61 -660 106 -525 330 -990 687 -1425 95 -116 341 -359 457 -451 429
-342 914 -564 1485 -678 448 -90 988 -93 1455 -10 560 99 1141 343 1690 709
359 239 653 484 1020 848 206 204 247 248 440 462 47 52 110 122 140 155 31
33 78 87 106 120 28 33 86 102 130 154 140 166 494 594 649 782 83 101 166
201 186 224 19 22 64 76 100 120 210 261 588 675 820 899 323 312 708 613
1000 782 115 67 439 228 533 266 677 271 1430 299 2084 77 240 -82 415 -168
601 -297 683 -472 1081 -1239 1081 -2083 0 -494 -185 -1039 -490 -1443 -312
-415 -736 -724 -1203 -877 -344 -113 -774 -166 -1136 -140 -604 44 -1137 232
-1693 596 -285 188 -514 373 -773 627 -188 184 -190 186 -274 228 -128 64
-290 49 -412 -39 -59 -42 -95 -87 -131 -166 -20 -43 -23 -66 -23 -160 0 -105
2 -114 34 -180 28 -58 57 -93 170 -205 355 -351 762 -669 1164 -908 294 -176
702 -360 952 -430 489 -138 775 -182 1180 -182 498 0 960 85 1400 257 565 221
1104 646 1451 1146 80 115 237 381 285 482 142 303 231 607 285 975 22 144 30
591 15 757 -15 158 -55 396 -87 523 -59 228 -190 568 -281 729 -98 174 -125
218 -192 316 -525 765 -1329 1252 -2306 1395 -782 114 -1599 -28 -2350 -410
-344 -175 -725 -424 -1015 -664 -268 -222 -653 -595 -915 -886 -159 -177 -420
-480 -601 -701 -198 -239 -492 -595 -564 -682 -267 -324 -431 -513 -632 -727
-159 -170 -525 -531 -618 -610 -423 -362 -750 -582 -1145 -771 -324 -154 -625
-243 -1005 -296 -174 -24 -584 -24 -765 1 -159 21 -322 56 -475 102 -607 181
-1139 609 -1453 1169 -137 244 -241 553 -289 855 -20 132 -17 607 5 734 38
214 116 479 189 641 274 604 775 1068 1408 1303 226 84 404 125 690 158 274
31 699 5 995 -61 194 -44 481 -144 675 -235 475 -225 817 -472 1275 -920 210
-206 248 -231 372 -250 76 -12 161 -3 226 25 43 18 142 107 172 155 35 56 58
139 57 206 -2 156 -44 223 -304 481 -490 487 -1022 852 -1608 1103 -377 162
-832 276 -1240 310 -135 11 -474 11 -610 -1z"/>
</g>
</svg>
